<mxfile host="app.diagrams.net" agent="Mozilla/5.0 (Macintosh; Intel Mac OS X 10_15_7) AppleWebKit/537.36 (KHTML, like Gecko) Chrome/138.0.0.0 Safari/537.36" version="24.7.12">
  <diagram name="Page-1" id="5Ja9lonJSmDXIo9ta7cx">
    <mxGraphModel dx="1295" dy="660" grid="1" gridSize="10" guides="1" tooltips="1" connect="1" arrows="1" fold="1" page="1" pageScale="1" pageWidth="850" pageHeight="1100" math="0" shadow="0">
      <root>
        <mxCell id="0" />
        <mxCell id="1" parent="0" />
        <mxCell id="Qexfav1VAQ6BFNDqsxQz-1" value="IN" style="ellipse;whiteSpace=wrap;html=1;" vertex="1" parent="1">
          <mxGeometry x="30" y="130" width="80" height="60" as="geometry" />
        </mxCell>
        <mxCell id="Qexfav1VAQ6BFNDqsxQz-2" value="LLM1" style="rounded=0;whiteSpace=wrap;html=1;" vertex="1" parent="1">
          <mxGeometry x="140" y="130" width="120" height="60" as="geometry" />
        </mxCell>
        <mxCell id="Qexfav1VAQ6BFNDqsxQz-3" value="GATE" style="rounded=0;whiteSpace=wrap;html=1;" vertex="1" parent="1">
          <mxGeometry x="290" y="130" width="60" height="60" as="geometry" />
        </mxCell>
        <mxCell id="Qexfav1VAQ6BFNDqsxQz-5" value="LLM2" style="rounded=0;whiteSpace=wrap;html=1;" vertex="1" parent="1">
          <mxGeometry x="380" y="130" width="120" height="60" as="geometry" />
        </mxCell>
        <mxCell id="Qexfav1VAQ6BFNDqsxQz-6" value="LLM3" style="rounded=0;whiteSpace=wrap;html=1;" vertex="1" parent="1">
          <mxGeometry x="530" y="130" width="120" height="60" as="geometry" />
        </mxCell>
        <mxCell id="Qexfav1VAQ6BFNDqsxQz-7" value="OUT" style="ellipse;whiteSpace=wrap;html=1;" vertex="1" parent="1">
          <mxGeometry x="690" y="130" width="80" height="60" as="geometry" />
        </mxCell>
        <mxCell id="Qexfav1VAQ6BFNDqsxQz-8" value="" style="endArrow=classic;html=1;rounded=0;exitX=1;exitY=0.5;exitDx=0;exitDy=0;entryX=0;entryY=0.5;entryDx=0;entryDy=0;" edge="1" parent="1" source="Qexfav1VAQ6BFNDqsxQz-1" target="Qexfav1VAQ6BFNDqsxQz-2">
          <mxGeometry width="50" height="50" relative="1" as="geometry">
            <mxPoint x="400" y="370" as="sourcePoint" />
            <mxPoint x="450" y="320" as="targetPoint" />
          </mxGeometry>
        </mxCell>
        <mxCell id="Qexfav1VAQ6BFNDqsxQz-9" value="" style="endArrow=classic;html=1;rounded=0;exitX=1;exitY=0.5;exitDx=0;exitDy=0;entryX=0;entryY=0.5;entryDx=0;entryDy=0;" edge="1" parent="1" source="Qexfav1VAQ6BFNDqsxQz-2" target="Qexfav1VAQ6BFNDqsxQz-3">
          <mxGeometry width="50" height="50" relative="1" as="geometry">
            <mxPoint x="120" y="170" as="sourcePoint" />
            <mxPoint x="150" y="170" as="targetPoint" />
          </mxGeometry>
        </mxCell>
        <mxCell id="Qexfav1VAQ6BFNDqsxQz-10" value="" style="endArrow=classic;html=1;rounded=0;entryX=0;entryY=0.5;entryDx=0;entryDy=0;" edge="1" parent="1" target="Qexfav1VAQ6BFNDqsxQz-5">
          <mxGeometry width="50" height="50" relative="1" as="geometry">
            <mxPoint x="350" y="160" as="sourcePoint" />
            <mxPoint x="300" y="170" as="targetPoint" />
          </mxGeometry>
        </mxCell>
        <mxCell id="Qexfav1VAQ6BFNDqsxQz-11" value="" style="endArrow=classic;html=1;rounded=0;entryX=0;entryY=0.5;entryDx=0;entryDy=0;" edge="1" parent="1" target="Qexfav1VAQ6BFNDqsxQz-6">
          <mxGeometry width="50" height="50" relative="1" as="geometry">
            <mxPoint x="500" y="160" as="sourcePoint" />
            <mxPoint x="390" y="170" as="targetPoint" />
          </mxGeometry>
        </mxCell>
        <mxCell id="Qexfav1VAQ6BFNDqsxQz-12" value="" style="endArrow=classic;html=1;rounded=0;entryX=0;entryY=0.5;entryDx=0;entryDy=0;" edge="1" parent="1" target="Qexfav1VAQ6BFNDqsxQz-7">
          <mxGeometry width="50" height="50" relative="1" as="geometry">
            <mxPoint x="650" y="160" as="sourcePoint" />
            <mxPoint x="540" y="170" as="targetPoint" />
          </mxGeometry>
        </mxCell>
        <mxCell id="Qexfav1VAQ6BFNDqsxQz-13" value="Prompt Chaining" style="text;html=1;align=center;verticalAlign=middle;whiteSpace=wrap;rounded=0;fontStyle=1" vertex="1" parent="1">
          <mxGeometry x="50" y="60" width="60" height="30" as="geometry" />
        </mxCell>
        <mxCell id="Qexfav1VAQ6BFNDqsxQz-14" value="Decompose into fixed sub-tasks" style="text;html=1;align=center;verticalAlign=middle;whiteSpace=wrap;rounded=0;" vertex="1" parent="1">
          <mxGeometry x="170" y="60" width="210" height="30" as="geometry" />
        </mxCell>
        <mxCell id="Qexfav1VAQ6BFNDqsxQz-15" value="Routing" style="text;html=1;align=center;verticalAlign=middle;whiteSpace=wrap;rounded=0;fontStyle=1" vertex="1" parent="1">
          <mxGeometry x="50" y="300" width="60" height="30" as="geometry" />
        </mxCell>
        <mxCell id="Qexfav1VAQ6BFNDqsxQz-16" value="Direct an input into a specialized sub-task, ensuring separation of concerns&amp;nbsp;" style="text;html=1;align=center;verticalAlign=middle;whiteSpace=wrap;rounded=0;" vertex="1" parent="1">
          <mxGeometry x="170" y="300" width="210" height="30" as="geometry" />
        </mxCell>
        <mxCell id="Qexfav1VAQ6BFNDqsxQz-17" value="IN" style="ellipse;whiteSpace=wrap;html=1;" vertex="1" parent="1">
          <mxGeometry x="50" y="440" width="80" height="60" as="geometry" />
        </mxCell>
        <mxCell id="Qexfav1VAQ6BFNDqsxQz-18" value="LLM&lt;br&gt;Router &lt;br&gt;(LLM)" style="rounded=0;whiteSpace=wrap;html=1;" vertex="1" parent="1">
          <mxGeometry x="180" y="440" width="120" height="60" as="geometry" />
        </mxCell>
        <mxCell id="Qexfav1VAQ6BFNDqsxQz-19" value="LLM1" style="rounded=0;whiteSpace=wrap;html=1;" vertex="1" parent="1">
          <mxGeometry x="360" y="370" width="60" height="60" as="geometry" />
        </mxCell>
        <mxCell id="Qexfav1VAQ6BFNDqsxQz-20" value="LLM2" style="rounded=0;whiteSpace=wrap;html=1;" vertex="1" parent="1">
          <mxGeometry x="360" y="440" width="60" height="60" as="geometry" />
        </mxCell>
        <mxCell id="Qexfav1VAQ6BFNDqsxQz-21" value="LLM3" style="rounded=0;whiteSpace=wrap;html=1;" vertex="1" parent="1">
          <mxGeometry x="360" y="520" width="60" height="60" as="geometry" />
        </mxCell>
        <mxCell id="Qexfav1VAQ6BFNDqsxQz-22" value="OUT" style="ellipse;whiteSpace=wrap;html=1;" vertex="1" parent="1">
          <mxGeometry x="500" y="440" width="80" height="60" as="geometry" />
        </mxCell>
        <mxCell id="Qexfav1VAQ6BFNDqsxQz-23" value="" style="endArrow=classic;html=1;rounded=0;exitX=1;exitY=0.5;exitDx=0;exitDy=0;entryX=0;entryY=0.5;entryDx=0;entryDy=0;" edge="1" parent="1" source="Qexfav1VAQ6BFNDqsxQz-17" target="Qexfav1VAQ6BFNDqsxQz-18">
          <mxGeometry width="50" height="50" relative="1" as="geometry">
            <mxPoint x="450" y="490" as="sourcePoint" />
            <mxPoint x="500" y="440" as="targetPoint" />
          </mxGeometry>
        </mxCell>
        <mxCell id="Qexfav1VAQ6BFNDqsxQz-24" value="" style="endArrow=classic;html=1;rounded=0;exitX=1;exitY=0.25;exitDx=0;exitDy=0;entryX=0;entryY=0.5;entryDx=0;entryDy=0;" edge="1" parent="1" source="Qexfav1VAQ6BFNDqsxQz-18" target="Qexfav1VAQ6BFNDqsxQz-19">
          <mxGeometry width="50" height="50" relative="1" as="geometry">
            <mxPoint x="140" y="480" as="sourcePoint" />
            <mxPoint x="190" y="480" as="targetPoint" />
          </mxGeometry>
        </mxCell>
        <mxCell id="Qexfav1VAQ6BFNDqsxQz-25" value="" style="endArrow=classic;html=1;rounded=0;exitX=1;exitY=0.5;exitDx=0;exitDy=0;entryX=0;entryY=0.5;entryDx=0;entryDy=0;" edge="1" parent="1" source="Qexfav1VAQ6BFNDqsxQz-18" target="Qexfav1VAQ6BFNDqsxQz-20">
          <mxGeometry width="50" height="50" relative="1" as="geometry">
            <mxPoint x="240" y="620" as="sourcePoint" />
            <mxPoint x="290" y="570" as="targetPoint" />
          </mxGeometry>
        </mxCell>
        <mxCell id="Qexfav1VAQ6BFNDqsxQz-26" value="" style="endArrow=classic;html=1;rounded=0;entryX=0;entryY=0.5;entryDx=0;entryDy=0;exitX=1;exitY=0.75;exitDx=0;exitDy=0;" edge="1" parent="1" source="Qexfav1VAQ6BFNDqsxQz-18" target="Qexfav1VAQ6BFNDqsxQz-21">
          <mxGeometry width="50" height="50" relative="1" as="geometry">
            <mxPoint x="40" y="660" as="sourcePoint" />
            <mxPoint x="90" y="610" as="targetPoint" />
          </mxGeometry>
        </mxCell>
        <mxCell id="Qexfav1VAQ6BFNDqsxQz-27" value="" style="endArrow=classic;html=1;rounded=0;entryX=0;entryY=0.5;entryDx=0;entryDy=0;exitX=1;exitY=0.5;exitDx=0;exitDy=0;" edge="1" parent="1" source="Qexfav1VAQ6BFNDqsxQz-20" target="Qexfav1VAQ6BFNDqsxQz-22">
          <mxGeometry width="50" height="50" relative="1" as="geometry">
            <mxPoint x="130" y="640" as="sourcePoint" />
            <mxPoint x="180" y="590" as="targetPoint" />
          </mxGeometry>
        </mxCell>
        <mxCell id="Qexfav1VAQ6BFNDqsxQz-28" value="Parallelization" style="text;html=1;align=center;verticalAlign=middle;whiteSpace=wrap;rounded=0;fontStyle=1" vertex="1" parent="1">
          <mxGeometry x="50" y="650" width="60" height="30" as="geometry" />
        </mxCell>
        <mxCell id="Qexfav1VAQ6BFNDqsxQz-29" value="Breaking down tasks and running multiple subtasks concurrently" style="text;html=1;align=center;verticalAlign=middle;whiteSpace=wrap;rounded=0;" vertex="1" parent="1">
          <mxGeometry x="210" y="650" width="210" height="30" as="geometry" />
        </mxCell>
        <mxCell id="Qexfav1VAQ6BFNDqsxQz-30" value="IN" style="ellipse;whiteSpace=wrap;html=1;" vertex="1" parent="1">
          <mxGeometry x="30" y="770" width="80" height="60" as="geometry" />
        </mxCell>
        <mxCell id="Qexfav1VAQ6BFNDqsxQz-31" value="Coordinator &lt;br&gt;(Python code)" style="rounded=0;whiteSpace=wrap;html=1;" vertex="1" parent="1">
          <mxGeometry x="160" y="770" width="120" height="60" as="geometry" />
        </mxCell>
        <mxCell id="Qexfav1VAQ6BFNDqsxQz-32" value="LLM1" style="rounded=0;whiteSpace=wrap;html=1;" vertex="1" parent="1">
          <mxGeometry x="340" y="700" width="60" height="60" as="geometry" />
        </mxCell>
        <mxCell id="Qexfav1VAQ6BFNDqsxQz-33" value="LLM2" style="rounded=0;whiteSpace=wrap;html=1;" vertex="1" parent="1">
          <mxGeometry x="340" y="770" width="60" height="60" as="geometry" />
        </mxCell>
        <mxCell id="Qexfav1VAQ6BFNDqsxQz-34" value="LLM3" style="rounded=0;whiteSpace=wrap;html=1;" vertex="1" parent="1">
          <mxGeometry x="340" y="850" width="60" height="60" as="geometry" />
        </mxCell>
        <mxCell id="Qexfav1VAQ6BFNDqsxQz-35" value="OUT" style="ellipse;whiteSpace=wrap;html=1;" vertex="1" parent="1">
          <mxGeometry x="630" y="770" width="80" height="60" as="geometry" />
        </mxCell>
        <mxCell id="Qexfav1VAQ6BFNDqsxQz-36" value="" style="endArrow=classic;html=1;rounded=0;exitX=1;exitY=0.5;exitDx=0;exitDy=0;entryX=0;entryY=0.5;entryDx=0;entryDy=0;" edge="1" parent="1" source="Qexfav1VAQ6BFNDqsxQz-30" target="Qexfav1VAQ6BFNDqsxQz-31">
          <mxGeometry width="50" height="50" relative="1" as="geometry">
            <mxPoint x="430" y="820" as="sourcePoint" />
            <mxPoint x="480" y="770" as="targetPoint" />
          </mxGeometry>
        </mxCell>
        <mxCell id="Qexfav1VAQ6BFNDqsxQz-37" value="" style="endArrow=classic;html=1;rounded=0;exitX=1;exitY=0.25;exitDx=0;exitDy=0;entryX=0;entryY=0.5;entryDx=0;entryDy=0;" edge="1" parent="1" source="Qexfav1VAQ6BFNDqsxQz-31" target="Qexfav1VAQ6BFNDqsxQz-32">
          <mxGeometry width="50" height="50" relative="1" as="geometry">
            <mxPoint x="120" y="810" as="sourcePoint" />
            <mxPoint x="170" y="810" as="targetPoint" />
          </mxGeometry>
        </mxCell>
        <mxCell id="Qexfav1VAQ6BFNDqsxQz-38" value="" style="endArrow=classic;html=1;rounded=0;exitX=1;exitY=0.5;exitDx=0;exitDy=0;entryX=0;entryY=0.5;entryDx=0;entryDy=0;" edge="1" parent="1" source="Qexfav1VAQ6BFNDqsxQz-31" target="Qexfav1VAQ6BFNDqsxQz-33">
          <mxGeometry width="50" height="50" relative="1" as="geometry">
            <mxPoint x="220" y="950" as="sourcePoint" />
            <mxPoint x="270" y="900" as="targetPoint" />
          </mxGeometry>
        </mxCell>
        <mxCell id="Qexfav1VAQ6BFNDqsxQz-39" value="" style="endArrow=classic;html=1;rounded=0;entryX=0;entryY=0.5;entryDx=0;entryDy=0;exitX=1;exitY=0.75;exitDx=0;exitDy=0;" edge="1" parent="1" source="Qexfav1VAQ6BFNDqsxQz-31" target="Qexfav1VAQ6BFNDqsxQz-34">
          <mxGeometry width="50" height="50" relative="1" as="geometry">
            <mxPoint x="20" y="990" as="sourcePoint" />
            <mxPoint x="70" y="940" as="targetPoint" />
          </mxGeometry>
        </mxCell>
        <mxCell id="Qexfav1VAQ6BFNDqsxQz-40" value="" style="endArrow=classic;html=1;rounded=0;entryX=0;entryY=0.5;entryDx=0;entryDy=0;exitX=1;exitY=0.5;exitDx=0;exitDy=0;" edge="1" parent="1" source="Qexfav1VAQ6BFNDqsxQz-41" target="Qexfav1VAQ6BFNDqsxQz-35">
          <mxGeometry width="50" height="50" relative="1" as="geometry">
            <mxPoint x="110" y="970" as="sourcePoint" />
            <mxPoint x="160" y="920" as="targetPoint" />
          </mxGeometry>
        </mxCell>
        <mxCell id="Qexfav1VAQ6BFNDqsxQz-42" value="" style="endArrow=classic;html=1;rounded=0;entryX=0;entryY=0.5;entryDx=0;entryDy=0;exitX=1;exitY=0.5;exitDx=0;exitDy=0;" edge="1" parent="1" source="Qexfav1VAQ6BFNDqsxQz-33" target="Qexfav1VAQ6BFNDqsxQz-41">
          <mxGeometry width="50" height="50" relative="1" as="geometry">
            <mxPoint x="400" y="800" as="sourcePoint" />
            <mxPoint x="630" y="800" as="targetPoint" />
          </mxGeometry>
        </mxCell>
        <mxCell id="Qexfav1VAQ6BFNDqsxQz-41" value="Aggregator&lt;br&gt;(Python code)" style="rounded=0;whiteSpace=wrap;html=1;" vertex="1" parent="1">
          <mxGeometry x="450" y="770" width="120" height="60" as="geometry" />
        </mxCell>
        <mxCell id="Qexfav1VAQ6BFNDqsxQz-43" value="Orchestrator-worker" style="text;html=1;align=center;verticalAlign=middle;whiteSpace=wrap;rounded=0;fontStyle=1" vertex="1" parent="1">
          <mxGeometry x="70" y="1030" width="60" height="30" as="geometry" />
        </mxCell>
        <mxCell id="Qexfav1VAQ6BFNDqsxQz-44" value="Complex tasks are broken down dynamically and combined" style="text;html=1;align=center;verticalAlign=middle;whiteSpace=wrap;rounded=0;" vertex="1" parent="1">
          <mxGeometry x="240" y="1010" width="210" height="30" as="geometry" />
        </mxCell>
        <mxCell id="Qexfav1VAQ6BFNDqsxQz-45" value="IN" style="ellipse;whiteSpace=wrap;html=1;" vertex="1" parent="1">
          <mxGeometry x="40" y="1130" width="80" height="60" as="geometry" />
        </mxCell>
        <mxCell id="Qexfav1VAQ6BFNDqsxQz-46" value="Orchestrator&amp;nbsp;&lt;br&gt;(LLM)" style="rounded=0;whiteSpace=wrap;html=1;" vertex="1" parent="1">
          <mxGeometry x="170" y="1130" width="120" height="60" as="geometry" />
        </mxCell>
        <mxCell id="Qexfav1VAQ6BFNDqsxQz-47" value="LLM1" style="rounded=0;whiteSpace=wrap;html=1;" vertex="1" parent="1">
          <mxGeometry x="350" y="1060" width="60" height="60" as="geometry" />
        </mxCell>
        <mxCell id="Qexfav1VAQ6BFNDqsxQz-48" value="LLM2" style="rounded=0;whiteSpace=wrap;html=1;" vertex="1" parent="1">
          <mxGeometry x="350" y="1130" width="60" height="60" as="geometry" />
        </mxCell>
        <mxCell id="Qexfav1VAQ6BFNDqsxQz-49" value="LLM3" style="rounded=0;whiteSpace=wrap;html=1;" vertex="1" parent="1">
          <mxGeometry x="350" y="1210" width="60" height="60" as="geometry" />
        </mxCell>
        <mxCell id="Qexfav1VAQ6BFNDqsxQz-50" value="OUT" style="ellipse;whiteSpace=wrap;html=1;" vertex="1" parent="1">
          <mxGeometry x="640" y="1130" width="80" height="60" as="geometry" />
        </mxCell>
        <mxCell id="Qexfav1VAQ6BFNDqsxQz-51" value="" style="endArrow=classic;html=1;rounded=0;exitX=1;exitY=0.5;exitDx=0;exitDy=0;entryX=0;entryY=0.5;entryDx=0;entryDy=0;" edge="1" parent="1" source="Qexfav1VAQ6BFNDqsxQz-45" target="Qexfav1VAQ6BFNDqsxQz-46">
          <mxGeometry width="50" height="50" relative="1" as="geometry">
            <mxPoint x="440" y="1180" as="sourcePoint" />
            <mxPoint x="490" y="1130" as="targetPoint" />
          </mxGeometry>
        </mxCell>
        <mxCell id="Qexfav1VAQ6BFNDqsxQz-52" value="" style="endArrow=classic;html=1;rounded=0;exitX=1;exitY=0.25;exitDx=0;exitDy=0;entryX=0;entryY=0.5;entryDx=0;entryDy=0;" edge="1" parent="1" source="Qexfav1VAQ6BFNDqsxQz-46" target="Qexfav1VAQ6BFNDqsxQz-47">
          <mxGeometry width="50" height="50" relative="1" as="geometry">
            <mxPoint x="130" y="1170" as="sourcePoint" />
            <mxPoint x="180" y="1170" as="targetPoint" />
          </mxGeometry>
        </mxCell>
        <mxCell id="Qexfav1VAQ6BFNDqsxQz-53" value="" style="endArrow=classic;html=1;rounded=0;exitX=1;exitY=0.5;exitDx=0;exitDy=0;entryX=0;entryY=0.5;entryDx=0;entryDy=0;" edge="1" parent="1" source="Qexfav1VAQ6BFNDqsxQz-46" target="Qexfav1VAQ6BFNDqsxQz-48">
          <mxGeometry width="50" height="50" relative="1" as="geometry">
            <mxPoint x="230" y="1310" as="sourcePoint" />
            <mxPoint x="280" y="1260" as="targetPoint" />
          </mxGeometry>
        </mxCell>
        <mxCell id="Qexfav1VAQ6BFNDqsxQz-54" value="" style="endArrow=classic;html=1;rounded=0;entryX=0;entryY=0.5;entryDx=0;entryDy=0;exitX=1;exitY=0.75;exitDx=0;exitDy=0;" edge="1" parent="1" source="Qexfav1VAQ6BFNDqsxQz-46" target="Qexfav1VAQ6BFNDqsxQz-49">
          <mxGeometry width="50" height="50" relative="1" as="geometry">
            <mxPoint x="30" y="1350" as="sourcePoint" />
            <mxPoint x="80" y="1300" as="targetPoint" />
          </mxGeometry>
        </mxCell>
        <mxCell id="Qexfav1VAQ6BFNDqsxQz-55" value="" style="endArrow=classic;html=1;rounded=0;entryX=0;entryY=0.5;entryDx=0;entryDy=0;exitX=1;exitY=0.5;exitDx=0;exitDy=0;" edge="1" parent="1" source="Qexfav1VAQ6BFNDqsxQz-57" target="Qexfav1VAQ6BFNDqsxQz-50">
          <mxGeometry width="50" height="50" relative="1" as="geometry">
            <mxPoint x="120" y="1330" as="sourcePoint" />
            <mxPoint x="170" y="1280" as="targetPoint" />
          </mxGeometry>
        </mxCell>
        <mxCell id="Qexfav1VAQ6BFNDqsxQz-56" value="" style="endArrow=classic;html=1;rounded=0;entryX=0;entryY=0.5;entryDx=0;entryDy=0;exitX=1;exitY=0.5;exitDx=0;exitDy=0;" edge="1" parent="1" source="Qexfav1VAQ6BFNDqsxQz-48" target="Qexfav1VAQ6BFNDqsxQz-57">
          <mxGeometry width="50" height="50" relative="1" as="geometry">
            <mxPoint x="410" y="1160" as="sourcePoint" />
            <mxPoint x="640" y="1160" as="targetPoint" />
          </mxGeometry>
        </mxCell>
        <mxCell id="Qexfav1VAQ6BFNDqsxQz-57" value="Synthesizer&lt;br&gt;(LLM)" style="rounded=0;whiteSpace=wrap;html=1;" vertex="1" parent="1">
          <mxGeometry x="460" y="1130" width="120" height="60" as="geometry" />
        </mxCell>
        <mxCell id="Qexfav1VAQ6BFNDqsxQz-58" value="Evaluator-Optimizer" style="text;html=1;align=center;verticalAlign=middle;whiteSpace=wrap;rounded=0;fontStyle=1" vertex="1" parent="1">
          <mxGeometry x="70" y="1340" width="60" height="30" as="geometry" />
        </mxCell>
        <mxCell id="Qexfav1VAQ6BFNDqsxQz-59" value="LLM output is validated by another" style="text;html=1;align=center;verticalAlign=middle;whiteSpace=wrap;rounded=0;" vertex="1" parent="1">
          <mxGeometry x="230" y="1340" width="210" height="30" as="geometry" />
        </mxCell>
        <mxCell id="Qexfav1VAQ6BFNDqsxQz-60" value="IN" style="ellipse;whiteSpace=wrap;html=1;" vertex="1" parent="1">
          <mxGeometry x="40" y="1420" width="80" height="60" as="geometry" />
        </mxCell>
        <mxCell id="Qexfav1VAQ6BFNDqsxQz-61" value="LLM&amp;nbsp;&lt;br&gt;Generator" style="rounded=0;whiteSpace=wrap;html=1;" vertex="1" parent="1">
          <mxGeometry x="175" y="1420" width="120" height="60" as="geometry" />
        </mxCell>
        <mxCell id="Qexfav1VAQ6BFNDqsxQz-62" value="LLM&amp;nbsp;&lt;br&gt;Evaluator" style="rounded=0;whiteSpace=wrap;html=1;" vertex="1" parent="1">
          <mxGeometry x="385" y="1420" width="120" height="60" as="geometry" />
        </mxCell>
        <mxCell id="Qexfav1VAQ6BFNDqsxQz-63" value="OUT" style="ellipse;whiteSpace=wrap;html=1;" vertex="1" parent="1">
          <mxGeometry x="590" y="1420" width="80" height="60" as="geometry" />
        </mxCell>
        <mxCell id="Qexfav1VAQ6BFNDqsxQz-64" value="" style="endArrow=classic;html=1;rounded=0;exitX=1;exitY=0.5;exitDx=0;exitDy=0;entryX=0;entryY=0.5;entryDx=0;entryDy=0;" edge="1" parent="1" source="Qexfav1VAQ6BFNDqsxQz-60" target="Qexfav1VAQ6BFNDqsxQz-61">
          <mxGeometry width="50" height="50" relative="1" as="geometry">
            <mxPoint x="360" y="1260" as="sourcePoint" />
            <mxPoint x="410" y="1210" as="targetPoint" />
          </mxGeometry>
        </mxCell>
        <mxCell id="Qexfav1VAQ6BFNDqsxQz-65" value="" style="endArrow=classic;html=1;rounded=0;exitX=1;exitY=0.25;exitDx=0;exitDy=0;entryX=0;entryY=0.25;entryDx=0;entryDy=0;" edge="1" parent="1" source="Qexfav1VAQ6BFNDqsxQz-61" target="Qexfav1VAQ6BFNDqsxQz-62">
          <mxGeometry width="50" height="50" relative="1" as="geometry">
            <mxPoint x="130" y="1460" as="sourcePoint" />
            <mxPoint x="185" y="1460" as="targetPoint" />
          </mxGeometry>
        </mxCell>
        <mxCell id="Qexfav1VAQ6BFNDqsxQz-66" value="solution" style="text;html=1;align=center;verticalAlign=middle;whiteSpace=wrap;rounded=0;" vertex="1" parent="1">
          <mxGeometry x="310" y="1400" width="60" height="30" as="geometry" />
        </mxCell>
        <mxCell id="Qexfav1VAQ6BFNDqsxQz-67" value="" style="endArrow=classic;html=1;rounded=0;exitX=0;exitY=0.75;exitDx=0;exitDy=0;entryX=1;entryY=0.75;entryDx=0;entryDy=0;" edge="1" parent="1" source="Qexfav1VAQ6BFNDqsxQz-62" target="Qexfav1VAQ6BFNDqsxQz-61">
          <mxGeometry width="50" height="50" relative="1" as="geometry">
            <mxPoint x="360" y="1260" as="sourcePoint" />
            <mxPoint x="410" y="1210" as="targetPoint" />
          </mxGeometry>
        </mxCell>
        <mxCell id="Qexfav1VAQ6BFNDqsxQz-68" value="rejected with feedback" style="text;html=1;align=center;verticalAlign=middle;whiteSpace=wrap;rounded=0;" vertex="1" parent="1">
          <mxGeometry x="290" y="1480" width="90" height="30" as="geometry" />
        </mxCell>
        <mxCell id="Qexfav1VAQ6BFNDqsxQz-69" value="" style="endArrow=classic;html=1;rounded=0;entryX=0;entryY=0.5;entryDx=0;entryDy=0;exitX=1;exitY=0.5;exitDx=0;exitDy=0;" edge="1" parent="1" source="Qexfav1VAQ6BFNDqsxQz-62" target="Qexfav1VAQ6BFNDqsxQz-63">
          <mxGeometry width="50" height="50" relative="1" as="geometry">
            <mxPoint x="360" y="1340" as="sourcePoint" />
            <mxPoint x="410" y="1290" as="targetPoint" />
          </mxGeometry>
        </mxCell>
        <mxCell id="Qexfav1VAQ6BFNDqsxQz-70" value="accepted" style="text;html=1;align=center;verticalAlign=middle;whiteSpace=wrap;rounded=0;" vertex="1" parent="1">
          <mxGeometry x="510" y="1400" width="90" height="30" as="geometry" />
        </mxCell>
      </root>
    </mxGraphModel>
  </diagram>
</mxfile>
